<svg width="66" height="73" viewBox="0 0 66 73" fill="none" xmlns="http://www.w3.org/2000/svg">
<path d="M21.0375 59.9943C21.0375 53.7011 22.9706 48.3301 23.1324 46.5896L0 54.9804C0 65.3212 14.5588 73 33 73C49.9853 73 66 66.6522 66 55.5947C66 45.7658 44.4691 41.2185 32.9838 34.154C23.1162 28.0109 18.975 21.0941 18.975 13.0057C18.975 5.22454 27.9853 1.43338 33.3235 1.43338C39.3088 1.43338 43.8382 4.09537 43.8382 11.8766C43.8382 13.7195 43.6765 15.7672 43.5147 17.3029L65.1912 25.6937C65.1912 15.8649 51.7647 0 34.2941 0C18.1176 0 2.42647 5.8359 2.42647 16.3815C2.42647 27.0295 15.3838 31.5767 26.8691 38.4365C37.0603 44.5795 45.7794 53.1374 45.7794 61.533C45.7794 69.4165 39.6324 71.5666 34.2941 71.5666C28.1471 71.5666 21.0375 67.6731 21.0375 59.9943Z" fill="#3A6BFC"/>
</svg>
